<mxfile host="app.diagrams.net" agent="Mozilla/5.0 (Macintosh; Intel Mac OS X 10_15_7) AppleWebKit/605.1.15 (KHTML, like Gecko) Version/18.0 Safari/605.1.15" version="24.7.14">
  <diagram name="Pagina-1" id="ssvtdKgtzOpqFnZ1-Ggy">
    <mxGraphModel grid="1" page="1" gridSize="10" guides="1" tooltips="1" connect="1" arrows="1" fold="1" pageScale="1" pageWidth="827" pageHeight="1169" math="0" shadow="0">
      <root>
        <mxCell id="0" />
        <mxCell id="1" parent="0" />
        <mxCell id="DWUz9tDCBCDPctFkztiu-17" value="Ripasso 3: Creare e prendere in input 3 variabili intere A, B e C. Trovare e stampare il valore massimo tra le tre variabili, utilizzando gli operatori logici" style="text;html=1;align=center;verticalAlign=middle;whiteSpace=wrap;rounded=0;fontSize=20;" vertex="1" parent="1">
          <mxGeometry x="104" y="50" width="620" height="30" as="geometry" />
        </mxCell>
        <mxCell id="DWUz9tDCBCDPctFkztiu-20" value="" style="edgeStyle=orthogonalEdgeStyle;rounded=0;orthogonalLoop=1;jettySize=auto;html=1;" edge="1" parent="1" source="DWUz9tDCBCDPctFkztiu-18" target="DWUz9tDCBCDPctFkztiu-19">
          <mxGeometry relative="1" as="geometry" />
        </mxCell>
        <mxCell id="DWUz9tDCBCDPctFkztiu-18" value="" style="ellipse;whiteSpace=wrap;html=1;aspect=fixed;" vertex="1" parent="1">
          <mxGeometry x="374" y="120" width="80" height="80" as="geometry" />
        </mxCell>
        <mxCell id="DWUz9tDCBCDPctFkztiu-22" value="" style="edgeStyle=orthogonalEdgeStyle;rounded=0;orthogonalLoop=1;jettySize=auto;html=1;" edge="1" parent="1" source="DWUz9tDCBCDPctFkztiu-19" target="DWUz9tDCBCDPctFkztiu-21">
          <mxGeometry relative="1" as="geometry" />
        </mxCell>
        <mxCell id="DWUz9tDCBCDPctFkztiu-19" value="A, B, C, MAX" style="shape=hexagon;perimeter=hexagonPerimeter2;whiteSpace=wrap;html=1;fixedSize=1;" vertex="1" parent="1">
          <mxGeometry x="354" y="230" width="120" height="80" as="geometry" />
        </mxCell>
        <mxCell id="DWUz9tDCBCDPctFkztiu-25" value="" style="edgeStyle=orthogonalEdgeStyle;rounded=0;orthogonalLoop=1;jettySize=auto;html=1;" edge="1" parent="1" source="DWUz9tDCBCDPctFkztiu-21" target="DWUz9tDCBCDPctFkztiu-24">
          <mxGeometry relative="1" as="geometry" />
        </mxCell>
        <mxCell id="DWUz9tDCBCDPctFkztiu-21" value="A, B, C" style="shape=parallelogram;perimeter=parallelogramPerimeter;whiteSpace=wrap;html=1;fixedSize=1;fillColor=#d5e8d4;strokeColor=#82b366;" vertex="1" parent="1">
          <mxGeometry x="354" y="340" width="120" height="60" as="geometry" />
        </mxCell>
        <mxCell id="DWUz9tDCBCDPctFkztiu-23" value="i" style="text;html=1;align=center;verticalAlign=middle;resizable=0;points=[];autosize=1;strokeColor=none;fillColor=none;" vertex="1" parent="1">
          <mxGeometry x="445" y="308" width="30" height="30" as="geometry" />
        </mxCell>
        <mxCell id="DWUz9tDCBCDPctFkztiu-42" style="edgeStyle=orthogonalEdgeStyle;rounded=0;orthogonalLoop=1;jettySize=auto;html=1;entryX=0.5;entryY=0;entryDx=0;entryDy=0;" edge="1" parent="1" source="DWUz9tDCBCDPctFkztiu-24" target="DWUz9tDCBCDPctFkztiu-39">
          <mxGeometry relative="1" as="geometry" />
        </mxCell>
        <mxCell id="UpCL-ZWd-XHaIgsqwEWl-2" value="" style="edgeStyle=orthogonalEdgeStyle;rounded=0;orthogonalLoop=1;jettySize=auto;html=1;" edge="1" parent="1" source="DWUz9tDCBCDPctFkztiu-24" target="UpCL-ZWd-XHaIgsqwEWl-1">
          <mxGeometry relative="1" as="geometry" />
        </mxCell>
        <mxCell id="DWUz9tDCBCDPctFkztiu-24" value="A &amp;gt;= B &amp;amp;&amp;amp; A&amp;gt;=C" style="rhombus;whiteSpace=wrap;html=1;" vertex="1" parent="1">
          <mxGeometry x="374" y="430" width="80" height="80" as="geometry" />
        </mxCell>
        <mxCell id="UpCL-ZWd-XHaIgsqwEWl-10" style="edgeStyle=orthogonalEdgeStyle;rounded=0;orthogonalLoop=1;jettySize=auto;html=1;entryX=0.5;entryY=0;entryDx=0;entryDy=0;" edge="1" parent="1" source="DWUz9tDCBCDPctFkztiu-39" target="UpCL-ZWd-XHaIgsqwEWl-9">
          <mxGeometry relative="1" as="geometry" />
        </mxCell>
        <mxCell id="UpCL-ZWd-XHaIgsqwEWl-13" style="edgeStyle=orthogonalEdgeStyle;rounded=0;orthogonalLoop=1;jettySize=auto;html=1;entryX=0.5;entryY=0;entryDx=0;entryDy=0;" edge="1" parent="1" source="DWUz9tDCBCDPctFkztiu-39" target="UpCL-ZWd-XHaIgsqwEWl-12">
          <mxGeometry relative="1" as="geometry" />
        </mxCell>
        <mxCell id="DWUz9tDCBCDPctFkztiu-39" value="B&amp;gt;=A &amp;amp;&amp;amp; B&amp;gt;=C" style="rhombus;whiteSpace=wrap;html=1;" vertex="1" parent="1">
          <mxGeometry x="245" y="505" width="80" height="80" as="geometry" />
        </mxCell>
        <mxCell id="DWUz9tDCBCDPctFkztiu-57" value="" style="edgeStyle=orthogonalEdgeStyle;rounded=0;orthogonalLoop=1;jettySize=auto;html=1;" edge="1" parent="1" source="DWUz9tDCBCDPctFkztiu-54" target="DWUz9tDCBCDPctFkztiu-56">
          <mxGeometry relative="1" as="geometry" />
        </mxCell>
        <mxCell id="DWUz9tDCBCDPctFkztiu-54" value="MAX" style="shape=parallelogram;perimeter=parallelogramPerimeter;whiteSpace=wrap;html=1;fixedSize=1;fillColor=#f8cecc;strokeColor=#b85450;" vertex="1" parent="1">
          <mxGeometry x="354" y="798" width="120" height="60" as="geometry" />
        </mxCell>
        <mxCell id="DWUz9tDCBCDPctFkztiu-56" value="" style="ellipse;whiteSpace=wrap;html=1;fillColor=#000000;" vertex="1" parent="1">
          <mxGeometry x="374" y="890" width="80" height="80" as="geometry" />
        </mxCell>
        <mxCell id="DWUz9tDCBCDPctFkztiu-58" value="o" style="text;html=1;align=center;verticalAlign=middle;resizable=0;points=[];autosize=1;strokeColor=none;fillColor=none;" vertex="1" parent="1">
          <mxGeometry x="445" y="770" width="30" height="30" as="geometry" />
        </mxCell>
        <mxCell id="UpCL-ZWd-XHaIgsqwEWl-19" style="edgeStyle=orthogonalEdgeStyle;rounded=0;orthogonalLoop=1;jettySize=auto;html=1;entryX=1;entryY=0.5;entryDx=0;entryDy=0;" edge="1" parent="1" source="UpCL-ZWd-XHaIgsqwEWl-1" target="UpCL-ZWd-XHaIgsqwEWl-18">
          <mxGeometry relative="1" as="geometry">
            <Array as="points">
              <mxPoint x="600" y="750" />
            </Array>
          </mxGeometry>
        </mxCell>
        <mxCell id="UpCL-ZWd-XHaIgsqwEWl-1" value="MAX = A" style="whiteSpace=wrap;html=1;" vertex="1" parent="1">
          <mxGeometry x="540" y="520" width="120" height="60" as="geometry" />
        </mxCell>
        <mxCell id="UpCL-ZWd-XHaIgsqwEWl-3" value="V" style="text;html=1;align=center;verticalAlign=middle;resizable=0;points=[];autosize=1;strokeColor=none;fillColor=none;" vertex="1" parent="1">
          <mxGeometry x="570" y="438" width="30" height="30" as="geometry" />
        </mxCell>
        <mxCell id="UpCL-ZWd-XHaIgsqwEWl-4" value="F" style="text;html=1;align=center;verticalAlign=middle;resizable=0;points=[];autosize=1;strokeColor=none;fillColor=none;" vertex="1" parent="1">
          <mxGeometry x="295" y="438" width="30" height="30" as="geometry" />
        </mxCell>
        <mxCell id="UpCL-ZWd-XHaIgsqwEWl-17" style="edgeStyle=orthogonalEdgeStyle;rounded=0;orthogonalLoop=1;jettySize=auto;html=1;entryX=1;entryY=0.5;entryDx=0;entryDy=0;" edge="1" parent="1" source="UpCL-ZWd-XHaIgsqwEWl-9" target="UpCL-ZWd-XHaIgsqwEWl-15">
          <mxGeometry relative="1" as="geometry">
            <Array as="points">
              <mxPoint x="410" y="680" />
            </Array>
          </mxGeometry>
        </mxCell>
        <mxCell id="UpCL-ZWd-XHaIgsqwEWl-9" value="MAX = B" style="whiteSpace=wrap;html=1;" vertex="1" parent="1">
          <mxGeometry x="354" y="580" width="120" height="60" as="geometry" />
        </mxCell>
        <mxCell id="UpCL-ZWd-XHaIgsqwEWl-16" style="edgeStyle=orthogonalEdgeStyle;rounded=0;orthogonalLoop=1;jettySize=auto;html=1;entryX=0;entryY=0.5;entryDx=0;entryDy=0;" edge="1" parent="1" source="UpCL-ZWd-XHaIgsqwEWl-12" target="UpCL-ZWd-XHaIgsqwEWl-15">
          <mxGeometry relative="1" as="geometry">
            <Array as="points">
              <mxPoint x="160" y="680" />
            </Array>
          </mxGeometry>
        </mxCell>
        <mxCell id="UpCL-ZWd-XHaIgsqwEWl-12" value="MAX = C" style="whiteSpace=wrap;html=1;" vertex="1" parent="1">
          <mxGeometry x="104" y="580" width="120" height="60" as="geometry" />
        </mxCell>
        <mxCell id="UpCL-ZWd-XHaIgsqwEWl-20" style="edgeStyle=orthogonalEdgeStyle;rounded=0;orthogonalLoop=1;jettySize=auto;html=1;entryX=0;entryY=0.5;entryDx=0;entryDy=0;" edge="1" parent="1" source="UpCL-ZWd-XHaIgsqwEWl-15" target="UpCL-ZWd-XHaIgsqwEWl-18">
          <mxGeometry relative="1" as="geometry">
            <Array as="points">
              <mxPoint x="285" y="750" />
            </Array>
          </mxGeometry>
        </mxCell>
        <mxCell id="UpCL-ZWd-XHaIgsqwEWl-15" value="" style="ellipse;whiteSpace=wrap;html=1;aspect=fixed;" vertex="1" parent="1">
          <mxGeometry x="265" y="660" width="40" height="40" as="geometry" />
        </mxCell>
        <mxCell id="UpCL-ZWd-XHaIgsqwEWl-22" style="edgeStyle=orthogonalEdgeStyle;rounded=0;orthogonalLoop=1;jettySize=auto;html=1;" edge="1" parent="1" source="UpCL-ZWd-XHaIgsqwEWl-18" target="DWUz9tDCBCDPctFkztiu-54">
          <mxGeometry relative="1" as="geometry" />
        </mxCell>
        <mxCell id="UpCL-ZWd-XHaIgsqwEWl-18" value="" style="ellipse;whiteSpace=wrap;html=1;aspect=fixed;" vertex="1" parent="1">
          <mxGeometry x="394" y="730" width="40" height="40" as="geometry" />
        </mxCell>
        <mxCell id="UpCL-ZWd-XHaIgsqwEWl-23" value="V" style="text;html=1;align=center;verticalAlign=middle;resizable=0;points=[];autosize=1;strokeColor=none;fillColor=none;" vertex="1" parent="1">
          <mxGeometry x="375" y="518" width="30" height="30" as="geometry" />
        </mxCell>
        <mxCell id="UpCL-ZWd-XHaIgsqwEWl-24" value="F" style="text;html=1;align=center;verticalAlign=middle;resizable=0;points=[];autosize=1;strokeColor=none;fillColor=none;" vertex="1" parent="1">
          <mxGeometry x="165" y="518" width="30" height="30" as="geometry" />
        </mxCell>
      </root>
    </mxGraphModel>
  </diagram>
</mxfile>
